<svg width="50" height="50" viewBox="0 0 50 50" fill="none" xmlns="http://www.w3.org/2000/svg">
<circle cx="25" cy="25" r="25" fill="white"/>
<path d="M17.0515 35.9237C17.9015 35.9237 18.7168 35.586 19.3179 34.9849C19.919 34.3838 20.2567 33.5686 20.2567 32.7185C20.2567 31.8684 19.919 31.0532 19.3179 30.4521C18.7168 29.851 17.9015 29.5133 17.0515 29.5133C16.2014 29.5133 15.3861 29.851 14.785 30.4521C14.1839 31.0532 13.8463 31.8684 13.8463 32.7185C13.8463 33.5686 14.1839 34.3838 14.785 34.9849C15.3861 35.586 16.2014 35.9237 17.0515 35.9237ZM33.7185 35.9237C34.5686 35.9237 35.3839 35.586 35.985 34.9849C36.5861 34.3838 36.9238 33.5686 36.9238 32.7185C36.9238 31.8684 36.5861 31.0532 35.985 30.4521C35.3839 29.851 34.5686 29.5133 33.7185 29.5133C32.8685 29.5133 32.0532 29.851 31.4521 30.4521C30.851 31.0532 30.5133 31.8684 30.5133 32.7185C30.5133 33.5686 30.851 34.3838 31.4521 34.9849C32.0532 35.586 32.8685 35.9237 33.7185 35.9237Z" stroke="#0E1724" stroke-width="2.56417" stroke-linejoin="round"/>
<path d="M19.8573 34.2653L21.2182 31.9595L32.1159 13.084" stroke="#0E1724" stroke-width="2.56417" stroke-linecap="round"/>
<path d="M18.6515 12.9584L29.5492 31.8338L30.9146 34.2653" stroke="#0E1724" stroke-width="2.56417" stroke-linecap="round"/>
</svg>
